<svg width="32" height="32" xmlns="http://www.w3.org/2000/svg" xmlns:xlink="http://www.w3.org/1999/xlink"><defs><circle id="a" cx="16" cy="16" r="16"/></defs><g fill="none" fill-rule="evenodd" opacity=".8"><mask id="b" fill="#fff"><use xlink:href="#a"/></mask><use fill="#879395" xlink:href="#a"/><g mask="url(#b)"><path fill="#879395" d="M4 28h24V4.067H4z"/><path d="M9.176 6.386h13.61c.948 0 1.74.317 2.388.928.675.624 1.012 1.38 1.012 2.273V22.39c0 .88-.337 1.637-1.012 2.26-.649.61-1.44.928-2.387.928H9.177c-.948 0-1.752-.317-2.414-.928-.649-.623-.986-1.38-.986-2.26V9.587c0-.892.337-1.65.986-2.273.662-.61 1.466-.928 2.413-.928" fill="#FFF"/><path d="M7.464 22.39h1.608v-6.413H7.464v6.414zm7.668-1.453c0-.574.61-.831 1.803-.819v.513l-.013.281a.825.825 0 01-.39.44 1.01 1.01 0 01-.648.22c-.493 0-.752-.22-.752-.635zm-2.09-3.336h-.972v-1.624h-1.531V17.6h-.727v1.1h.727v1.93c0 .66.13 1.149.428 1.43.285.293.713.44 1.232.44.338 0 .61-.037.857-.123l-.013-1.124c-.052.037-.143.062-.299.062-.246 0-.428-.086-.545-.257-.09-.122-.13-.342-.13-.66v-1.698h.974v-1.1zm3.854 1.589c-1.038 0-1.83.146-2.374.464-.558.318-.856.794-.856 1.405 0 .379.168.72.454 1.002.337.293.765.44 1.284.44.701 0 1.22-.208 1.583-.611h.039v.5h1.453v-2.822c0-.635-.181-1.124-.519-1.478-.415-.403-1.025-.623-1.83-.623-.83 0-1.53.147-2.075.464l.298.941c.441-.257.947-.379 1.505-.379.701 0 1.038.208 1.038.648v.049zm4.061-1.589h-1.583v2.774c0 .745.208 1.295.584 1.661.35.318.792.465 1.363.465.791 0 1.375-.294 1.738-.868h.013v.758h1.402V17.6H22.89V20.4a.852.852 0 01-.04.293c-.18.404-.492.624-.972.624-.61 0-.922-.404-.922-1.198v-2.517zm.403-.33h1.103l1.362-1.294h-1.492l-.973 1.295z" fill="#879395" fill-rule="nonzero"/></g></g></svg>