<svg width="32" height="32" xmlns="http://www.w3.org/2000/svg" xmlns:xlink="http://www.w3.org/1999/xlink"><defs><circle id="a" cx="16" cy="16" r="16"/></defs><g fill="none" fill-rule="evenodd" opacity=".8"><mask id="b" fill="#fff"><use xlink:href="#a"/></mask><use fill="#879395" xlink:href="#a"/><g mask="url(#b)"><path fill="#879395" d="M4 4h24v24H4z"/><path d="M7.864 21.593l1.693-1.076 1.693 1.076-3.386 2.152v-2.152zm16.253-11.189l-1.693 1.076-1.693-1.076 3.386-2.153v2.153zm0 8.176l-8.126 5.165-8.127-5.165 9.65-6.132 1.694 1.076-7.788 4.95 4.74 3.012 2.2-1.399-1.692-1.076 4.063-2.583 3.386 2.152zM7.864 13.417l8.127-5.163 8.127 5.163-9.65 6.132-1.694-1.076 7.788-4.949-4.74-3.012-2.201 1.399 1.693 1.075-4.064 2.583-3.386-2.152z" fill="#FFF" fill-rule="nonzero"/></g></g></svg>