<svg width="32" height="32" xmlns="http://www.w3.org/2000/svg" xmlns:xlink="http://www.w3.org/1999/xlink"><defs><circle id="a" cx="16" cy="16" r="16"/></defs><g fill="none" fill-rule="evenodd" opacity=".8"><mask id="b" fill="#fff"><use xlink:href="#a"/></mask><use fill="#879395" xlink:href="#a"/><g mask="url(#b)"><path fill="#879395" d="M4 4h24v24H4V4z"/><path d="M16.344 8.17c-.059.5-.034 1.036.115 1.469.2.583.478 1.003 1.5 2.287 1.079 1.354 1.424 1.845 1.68 2.547.21.575.215.906.125 1.427.945.174 2.494.658 3.532 1.26.963.57 1.663 1.312 1.92 2.031.151.425.145 1.085-.016 1.497a3.158 3.158 0 01-.68 1.057c-1.242 1.315-3.703 2.258-6.668 2.559-.655.066-2.262.114-2.814.083-3.96-.223-7.144-1.543-8.05-3.338-.377-.746-.368-1.389.03-2.127.327-.608 1.225-1.36 2.28-1.912a18.381 18.381 0 012.991-1.102c.05.644 1.35 2.183 1.78 2.728.94 1.186 1.31 1.751 1.576 2.204.159.272.249.446.204.964 0 0 .361-.316.497-.584.177-.347.24-.699.206-1.15-.041-.545-.137-.88-.407-1.412-.262-.519-.638-1.043-1.353-1.89-1.009-1.195-1.382-1.852-1.537-2.705-.17-.946.105-1.953.67-2.443.123-.106.32-.21.32-.21s-.016.244-.016.521c0 .586.069.892.302 1.338.29.555.69 1.074 1.918 2.484 1.087 1.249 1.425 1.883 1.425 2.675v.382s.287-.211.42-.405c.421-.614.488-1.571.167-2.42-.22-.581-.576-1.11-1.63-2.388-1.072-1.301-1.522-2.344-1.522-3.212 0-.87.195-1.698 1.035-2.216z" fill="#FFF"/></g></g></svg>