<svg width="32" height="32" viewBox="0 0 32 32" fill="none" xmlns="http://www.w3.org/2000/svg">
<circle cx="16" cy="16" r="16" fill="#879395"/>
<path d="M12.2515 12.1414L8.71664 19.879H6.4104L4.67088 13.704C4.56527 13.3237 4.47344 13.1844 4.15225 13.0241C3.62787 12.7631 2.7619 12.5183 2 12.3663L2.05175 12.1414H5.76409C6.23729 12.1414 6.66268 12.4304 6.77012 12.9303L7.68881 17.4077L9.95933 12.1413L12.2515 12.1414ZM21.2877 17.3527C21.297 15.3105 18.2098 15.198 18.231 14.2858C18.2376 14.0081 18.5257 13.7129 19.1564 13.6376C19.469 13.6001 20.3304 13.5714 21.3073 13.9839L21.6905 12.3431C21.1655 12.1682 20.4901 12 19.6498 12C17.4933 12 15.9757 13.0517 15.9629 14.5577C15.9489 15.6717 17.0461 16.2933 17.8727 16.6634C18.723 17.0424 19.0084 17.286 19.0051 17.6251C18.9991 18.1441 18.3269 18.3732 17.6987 18.3823C16.6021 18.3978 15.9658 18.1101 15.4586 17.8937L15.0632 19.5888C15.5729 19.8034 16.5138 19.9906 17.4893 20C19.7814 20 21.2807 18.9613 21.2877 17.3527ZM26.9822 19.879H29L27.2387 12.1414H25.3763C24.9575 12.1414 24.6042 12.3651 24.4479 12.7091L21.174 19.879H23.4649L23.9197 18.7233H26.7188L26.9822 19.879ZM24.5478 17.1374L25.6962 14.2322L26.3571 17.1374H24.5478ZM15.3687 12.1414L13.5647 19.879H11.383L13.1878 12.1414H15.3687Z" fill="white"/>
</svg>
