<svg width="32" height="32" xmlns="http://www.w3.org/2000/svg" xmlns:xlink="http://www.w3.org/1999/xlink"><defs><path id="a" d="M.022.058h11.442v8.946H.022z"/><path id="c" d="M.044.018h1.984v1.896H.044z"/></defs><g fill="none" fill-rule="evenodd" opacity=".8"><circle fill="#879395" cx="16" cy="16" r="16"/><g transform="translate(10.54 7.033)"><mask id="b" fill="#fff"><use xlink:href="#a"/></mask><path d="M6.725 9.004c2.478.012 4.74-1.994 4.74-4.434 0-2.668-2.262-4.513-4.74-4.512H4.593C2.086.058.022 1.902.022 4.57c0 2.44 2.064 4.446 4.57 4.434h2.133z" fill="#FEFEFE" mask="url(#b)"/></g><path d="M15.143 7.461c-2.292 0-4.148 1.834-4.149 4.096 0 2.261 1.857 4.094 4.149 4.094 2.291 0 4.148-1.833 4.148-4.094 0-2.262-1.857-4.095-4.148-4.096m-2.63 4.096a2.602 2.602 0 011.688-2.423v4.845a2.6 2.6 0 01-1.688-2.422m3.57 2.422V9.134a2.6 2.6 0 011.69 2.423 2.6 2.6 0 01-1.69 2.422" fill="#879395" fill-rule="nonzero"/><path d="M5.457 16.872c0-.425-.225-.397-.44-.402v-.123c.187.01.378.01.565.01.201 0 .474-.01.83-.01 1.24 0 1.916.818 1.916 1.656 0 .468-.278 1.646-1.974 1.646-.245 0-.47-.01-.695-.01-.216 0-.427.005-.642.01v-.123c.287-.029.426-.038.44-.36v-2.294zm.47 2.219c0 .364.264.406.498.406 1.036 0 1.375-.77 1.375-1.475 0-.885-.575-1.523-1.5-1.523-.196 0-.287.014-.373.019v2.573zm2.569.435h.09c.135 0 .23 0 .23-.157v-1.281c0-.208-.071-.237-.249-.33v-.077c.225-.066.494-.156.513-.17a.172.172 0 01.086-.024c.024 0 .034.029.034.067v1.815c0 .157.105.157.24.157h.08v.123c-.162 0-.33-.01-.502-.01-.173 0-.345.005-.522.01v-.123zm.512-2.767a.244.244 0 01-.234-.236c0-.119.115-.228.234-.228.125 0 .235.1.235.228a.238.238 0 01-.235.236z" fill="#FFF" fill-rule="nonzero"/><path d="M9.976 18.116c0-.175-.053-.222-.277-.312v-.09c.205-.066.402-.127.632-.227.014 0 .028.01.028.047v.308c.274-.194.509-.355.83-.355.407 0 .55.293.55.662v1.22c0 .157.106.157.24.157h.087v.123c-.169 0-.336-.01-.508-.01-.173 0-.346.005-.518.01v-.123h.086c.135 0 .23 0 .23-.157v-1.224c0-.27-.167-.402-.44-.402-.154 0-.398.123-.557.227v1.4c0 .156.106.156.24.156h.086v.123c-.167 0-.335-.01-.508-.01-.172 0-.345.005-.517.01v-.123h.086c.134 0 .23 0 .23-.157v-1.253z" fill="#FFF"/><path d="M12.43 18.344c-.01.042-.01.113 0 .274.028.45.321.818.704.818.264 0 .47-.142.647-.317l.067.066c-.22.289-.494.535-.886.535-.762 0-.916-.729-.916-1.031 0-.928.633-1.202.968-1.202.388 0 .806.241.81.743 0 .028 0 .057-.004.085l-.044.029H12.43zm.848-.152c.12 0 .134-.061.134-.118 0-.241-.149-.435-.417-.435-.292 0-.493.212-.55.553h.833z" fill="#FFF" fill-rule="nonzero"/><path d="M13.934 19.526h.13c.134 0 .23 0 .23-.157v-1.328c0-.147-.178-.175-.25-.213v-.07c.35-.148.542-.27.586-.27.028 0 .042.013.042.061v.426h.01c.12-.185.321-.488.613-.488.12 0 .273.08.273.25 0 .129-.09.242-.225.242-.149 0-.149-.113-.316-.113-.082 0-.35.109-.35.392v1.111c0 .157.096.157.23.157h.268v.123c-.263-.005-.464-.01-.67-.01-.197 0-.398.005-.57.01v-.123zm1.846-.535c.062.312.253.577.603.577.282 0 .388-.17.388-.335 0-.558-1.044-.379-1.044-1.14 0-.265.215-.606.742-.606.153 0 .36.043.546.138l.034.482h-.11c-.048-.298-.216-.468-.523-.468-.191 0-.373.109-.373.312 0 .554 1.111.383 1.111 1.126 0 .311-.254.643-.824.643-.192 0-.417-.066-.584-.16l-.053-.545.086-.024zm5.701-1.788h-.12c-.09-.553-.488-.775-1.025-.775-.551 0-1.351.364-1.351 1.499 0 .956.69 1.641 1.428 1.641.474 0 .867-.321.963-.818l.11.028-.11.69c-.201.124-.743.252-1.06.252-1.12 0-1.83-.714-1.83-1.779 0-.97.877-1.665 1.817-1.665.388 0 .762.123 1.13.251l.048.676zm.173 2.323h.09c.135 0 .231 0 .231-.157v-2.634c0-.307-.072-.317-.254-.369v-.075c.192-.062.393-.147.494-.204.052-.028.09-.052.105-.052.029 0 .039.029.039.066v3.268c0 .157.105.157.24.157h.08v.123c-.162 0-.33-.01-.503-.01a19.2 19.2 0 00-.522.01v-.123zm3.076-.137c0 .085.053.09.135.09.057 0 .129-.005.191-.005v.1a4.875 4.875 0 00-.69.146l-.024-.014v-.383c-.287.231-.508.397-.848.397-.259 0-.527-.166-.527-.563v-1.21c0-.124-.02-.242-.287-.266v-.09c.172-.004.555-.033.618-.033.053 0 .053.033.053.138v1.22c0 .142 0 .548.416.548.163 0 .379-.123.58-.288v-1.273c0-.094-.23-.146-.402-.193v-.085c.43-.029.7-.067.747-.067.039 0 .039.033.039.086v1.745z" fill="#FFF"/><path d="M25.684 17.828c.192-.16.45-.34.714-.34.556 0 .891.477.891.993 0 .62-.46 1.239-1.145 1.239-.355 0-.541-.114-.666-.166l-.144.109-.1-.052c.042-.279.067-.553.067-.842v-2.034c0-.307-.072-.317-.254-.369v-.075c.192-.062.393-.147.493-.204.053-.028.091-.052.106-.052.029 0 .038.029.038.066v1.727zm0 1.286c0 .18.173.483.494.483.512 0 .728-.497.728-.918 0-.51-.393-.936-.767-.936-.177 0-.326.113-.455.222v1.15z" fill="#FFF" fill-rule="nonzero"/><path d="M5.011 22.399h.037c.094 0 .193-.013.193-.146v-1.349c0-.134-.1-.147-.193-.147h-.037v-.077c.102 0 .258.01.387.01.13 0 .286-.01.409-.01v.077H5.77c-.093 0-.193.013-.193.147v1.349c0 .133.1.146.193.146h.037v.078c-.125 0-.282-.01-.412-.01-.128 0-.282.01-.384.01v-.078z" fill="#FFF"/><path d="M5.986 22.487c-.154 0-.345-.01-.504-.01-.156 0-.343.01-.468.01H5v-.099h.058c.116-.002.221-.01.222-.136v-1.348c0-.126-.106-.134-.222-.136H5v-.1h.014c.125 0 .316.01.472.01.158 0 .35-.01.5-.01H6v.101h-.059c-.115.002-.221.01-.222.136v1.348c.001.126.107.134.222.136H6v.098h-.014zm-.014-.021v-.055h-.03c-.114 0-.25-.016-.25-.159v-1.348c0-.142.136-.158.25-.158h.03v-.055c-.147 0-.331.01-.486.01-.151 0-.335-.01-.458-.01v.055h.03c.114 0 .25.016.25.158v1.348c0 .143-.136.159-.25.159h-.03v.055c.123-.002.303-.01.454-.01.156 0 .34.009.49.01z" fill="#FFF" fill-rule="nonzero"/><path d="M7.598 21.97l.005-.006V21c0-.21-.149-.242-.227-.242H7.32v-.077c.122 0 .242.01.365.01.107 0 .214-.01.32-.01v.077h-.038c-.11 0-.233.02-.233.327v1.171c0 .09.003.18.016.26h-.1l-1.342-1.477v1.06c0 .224.044.301.245.301h.044v.078c-.112 0-.224-.01-.336-.01-.117 0-.237.01-.354.01V22.4h.036c.18 0 .235-.12.235-.326v-1.085a.233.233 0 00-.237-.23h-.034v-.078c.099 0 .2.01.3.01.077 0 .153-.01.231-.01l1.16 1.29z" fill="#FFF"/><path d="M7.749 22.526l-.108-.004-1.323-1.455v1.031c.003.224.038.287.234.29h.056v.1h-.012c-.112 0-.225-.01-.336-.01-.117 0-.236.01-.355.01h-.011v-.101h.048c.172-.001.222-.11.224-.316V20.99a.222.222 0 00-.226-.22h-.046v-.102h.011c.1 0 .202.01.3.01.078 0 .153-.01.24-.006l1.147 1.273V21c-.002-.204-.14-.23-.216-.23h-.069v-.102h.012c.123 0 .243.01.365.01.106 0 .213-.01.32-.01h.012v.1h-.051c-.107.003-.217.013-.22.316v1.171c0 .09.002.18.015.258l.002.013H7.75zm-.1-.022h.087a1.687 1.687 0 01-.014-.249v-1.171c0-.309.131-.338.244-.338h.027v-.055c-.103 0-.206.01-.31.01-.118 0-.235-.01-.353-.01v.055h.046c.08 0 .238.035.238.253l-.003.973-.005.005-.01.008-1.159-1.294c-.077 0-.153.01-.232.01-.096 0-.193-.01-.288-.01v.055h.023c.122 0 .248.092.248.243v1.083c0 .206-.058.338-.246.339h-.025v.055c.113-.002.23-.01.343-.01.109 0 .217.008.325.01v-.055h-.033c-.205 0-.256-.089-.256-.313v-1.09l1.354 1.496z" fill="#FFF" fill-rule="nonzero"/><path d="M8.395 20.809c-.196 0-.203.046-.242.234h-.079c.01-.072.024-.144.032-.22a1.55 1.55 0 00.015-.217h.063c.021.077.086.074.157.074h1.345c.07 0 .135-.002.14-.08l.063.01c-.01.07-.02.14-.028.209-.005.07-.005.14-.005.208l-.079.029c-.005-.095-.018-.247-.193-.247h-.427v1.369c0 .198.091.221.216.221h.05v.078c-.102 0-.285-.01-.425-.01-.157 0-.34.01-.441.01v-.078h.05c.143 0 .216-.013.216-.216V20.81h-.428z" fill="#FFF"/><path d="M9.423 22.487c-.103 0-.285-.01-.425-.01-.157 0-.339.01-.441.01h-.011v-.1h.06c.144-.002.202-.004.205-.204V20.82h-.416v-.023h.439v1.386c0 .207-.084.228-.228.228h-.038v.054c.103 0 .278-.01.43-.01.136 0 .31.01.413.01v-.054h-.038c-.126 0-.227-.03-.227-.233v-1.38h.438c.175 0 .198.147.204.242l.056-.02c0-.067 0-.135.005-.203a5.84 5.84 0 01.027-.197l-.04-.007c-.012.075-.085.079-.15.078H8.327c-.061 0-.128-.003-.151-.074h-.043c0 .07-.006.14-.016.208-.007.07-.02.139-.029.207h.056c.034-.18.056-.237.251-.235v.022c-.193.004-.189.036-.231.226l-.002.01h-.1v-.014c.012-.072.025-.144.032-.219a1.45 1.45 0 00.016-.216v-.012h.083l.002.008c.018.065.066.066.132.067h1.359c.072-.001.125-.002.13-.07v-.012l.012.002.074.012-.002.011c-.01.07-.02.139-.028.208-.005.068-.005.138-.005.207v.008l-.008.003-.092.033v-.015c-.008-.096-.018-.236-.183-.236h-.416v1.358c.003.194.08.207.205.21h.06v.1h-.01zm.549-.088h.037c.094 0 .193-.013.193-.146v-1.349c0-.134-.1-.147-.193-.147h-.037v-.077c.16 0 .43.01.65.01.219 0 .49-.01.667-.01-.005.11-.002.28.005.394l-.078.02c-.013-.167-.044-.3-.318-.3h-.362v.673h.31c.156 0 .19-.087.206-.226h.078a5.858 5.858 0 000 .595l-.078.015c-.016-.154-.024-.255-.204-.255h-.312v.6c0 .167.15.167.318.167.313 0 .45-.02.529-.314l.073.018a5.568 5.568 0 00-.089.41c-.167 0-.466-.01-.7-.01-.236 0-.546.01-.695.01v-.078z" fill="#FFF"/><path d="M11.367 22.487c-.167 0-.467-.01-.701-.01-.235 0-.545.01-.694.01h-.01v-.099h.047c.094-.002.18-.01.181-.136v-1.348c0-.126-.087-.134-.181-.136h-.048v-.1h.011c.16 0 .43.01.65.01.219 0 .49-.01.667-.01h.011v.012a3.975 3.975 0 00.005.393v.01l-.008.002-.092.023v-.013c-.016-.167-.038-.288-.307-.29h-.351v.651h.299c.15-.001.177-.077.195-.216v-.01h.1v.011a6.052 6.052 0 000 .594v.01l-.009.001-.09.018-.001-.012c-.018-.157-.02-.243-.193-.245h-.301v.589c0 .156.137.155.307.156.313-.002.44-.017.518-.306l.003-.01.01.002.084.021-.002.01a5.591 5.591 0 00-.089.41l-.002.008h-.009zm-.01-.022c.023-.13.053-.26.085-.39l-.051-.012c-.078.288-.23.313-.537.311-.165 0-.329 0-.33-.178v-.61h.324c.182-.003.2.106.214.252l.056-.012a5.402 5.402 0 010-.574h-.056c-.015.134-.057.228-.216.227h-.322v-.697h.374c.271-.002.316.136.328.298l.056-.015a4.391 4.391 0 01-.005-.374c-.177 0-.441.01-.656.01-.214 0-.478-.01-.637-.01v.055h.025c.093 0 .204.016.204.158v1.348c0 .143-.111.158-.204.159h-.025v.054c.152 0 .453-.01.682-.01.23 0 .524.01.692.01zm.451-1.512c0-.188-.105-.196-.186-.196h-.047v-.077c.084 0 .246.01.405.01.156 0 .281-.01.42-.01.328 0 .62.087.62.453 0 .231-.156.373-.362.453l.445.658c.074.11.125.14.253.155v.078c-.086 0-.17-.01-.255-.01-.081 0-.165.01-.245.01-.2-.26-.373-.538-.543-.835h-.171v.551c0 .199.093.206.213.206h.047v.078c-.149 0-.3-.01-.448-.01-.126 0-.248.01-.379.01v-.078h.047c.097 0 .186-.043.186-.139v-1.307zm.334.597h.127c.261 0 .401-.098.401-.402 0-.229-.148-.375-.38-.375-.079 0-.112.008-.148.01v.767z" fill="#FFF" fill-rule="nonzero"/><path d="M13.356 22.488c-.087 0-.17-.01-.256-.01-.08 0-.162.01-.253.005a7.19 7.19 0 01-.54-.83h-.154v.54c.002.194.081.192.202.195h.058v.1h-.011c-.15 0-.3-.01-.449-.01-.124 0-.247.01-.378.01h-.01v-.1h.058c.094 0 .173-.04.173-.128v-1.307c-.002-.183-.093-.182-.173-.185h-.059v-.1h.011c.085 0 .246.01.405.01.155 0 .28-.01.42-.01.328.001.63.09.632.465 0 .232-.156.377-.357.458l.438.647c.073.107.118.134.245.15l.01.001v.099h-.012zm-1.215-.857h.178l.004.006c.17.296.34.574.533.829.08 0 .163-.01.244-.01.084 0 .164.008.245.01v-.057c-.122-.015-.18-.051-.25-.158l-.455-.67.013-.005c.204-.08.355-.217.356-.443 0-.357-.282-.44-.61-.442-.137 0-.262.01-.42.01-.152 0-.307-.01-.392-.01v.055h.036c.08 0 .196.013.196.207v1.307c0 .104-.098.15-.196.15h-.036v.055c.125 0 .244-.01.366-.01.146 0 .293.01.438.01v-.054h-.036c-.12 0-.225-.015-.225-.218v-.562h.011zm0-.07h-.011v-.788l.01-.001c.036-.003.07-.01.15-.01.237 0 .392.152.392.387 0 .307-.15.411-.413.412h-.128zm.128-.022c.258-.003.388-.091.39-.39 0-.225-.142-.365-.37-.365-.07 0-.103.006-.136.009v.746h.116z" fill="#FFF" fill-rule="nonzero"/><path d="M15.127 21.97l.004-.006V21c0-.21-.148-.242-.226-.242h-.057v-.077c.122 0 .242.01.365.01.107 0 .213-.01.32-.01v.077h-.039c-.11 0-.232.02-.232.327v1.171c0 .09.003.18.016.26h-.1l-1.342-1.477v1.06c0 .224.044.301.245.301h.044v.078c-.112 0-.224-.01-.336-.01-.117 0-.237.01-.355.01V22.4h.037c.18 0 .235-.12.235-.326v-1.085a.232.232 0 00-.238-.23h-.034v-.078c.1 0 .201.01.3.01.078 0 .154-.01.232-.01l1.16 1.29z" fill="#FFF"/><path d="M15.278 22.526l-.108-.004-1.323-1.455v1.031c.003.224.037.287.234.29h.055v.1h-.01c-.114 0-.226-.011-.337-.011-.117 0-.237.01-.355.01h-.011v-.1h.048c.172 0 .221-.11.223-.315V20.99a.221.221 0 00-.226-.22h-.045v-.102h.011c.1 0 .202.01.3.01.077 0 .152-.01.24-.007l1.146 1.274V21c0-.204-.14-.23-.215-.23h-.07v-.102h.012c.124 0 .244.01.365.01.107 0 .214-.01.321-.01h.012v.1h-.051c-.107.003-.218.013-.22.316v1.171c0 .09.002.18.015.258l.001.013h-.012zm-.1-.022h.086a1.751 1.751 0 01-.013-.249v-1.171c0-.309.132-.337.243-.338h.028v-.055c-.103 0-.206.01-.31.01-.12 0-.235-.01-.353-.01v.055h.046c.08 0 .238.035.238.253l-.004.973-.005.005-.008.009-1.16-1.295c-.077 0-.153.01-.232.01-.096 0-.194-.01-.289-.01v.055h.023c.123 0 .248.092.248.243v1.083c0 .207-.058.338-.245.339h-.026v.054c.113 0 .23-.01.344-.01.109 0 .217.01.325.01v-.054h-.033c-.205 0-.256-.089-.257-.313V21.01l1.355 1.495zm.775-.396c-.027.088-.058.155-.058.201 0 .077.11.09.196.09h.028v.078a4.846 4.846 0 00-.597 0v-.078h.016c.102 0 .188-.06.226-.167l.418-1.181c.034-.096.081-.224.097-.32.083-.028.187-.08.237-.11.008-.003.012-.006.02-.006s.013 0 .019.008c.008.02.015.044.024.065l.48 1.346c.03.09.062.185.095.262.032.073.087.103.173.103h.015v.078a7.603 7.603 0 00-.75 0v-.078h.028c.06 0 .162-.01.162-.074a.806.806 0 00-.053-.186l-.101-.298h-.592l-.083.267zm.38-1.14h-.005l-.242.729h.487l-.24-.729z" fill="#FFF" fill-rule="nonzero"/><path d="M17.342 22.487c-.118-.005-.235-.01-.36-.01-.127 0-.257.005-.39.01l-.012.001v-.101h.04c.06 0 .15-.013.15-.062 0-.03-.023-.1-.051-.182l-.1-.291h-.575l-.08.26c-.027.087-.059.155-.058.197 0 .063.098.078.185.078h.04v.101h-.012a5.524 5.524 0 00-.315-.011c-.093 0-.187.005-.28.01l-.013.001v-.101h.027c.097 0 .178-.054.216-.159l.417-1.181c.034-.096.081-.224.104-.326a1.35 1.35 0 00.237-.11c.007-.003.014-.007.025-.007.006 0 .02.002.028.015l.024.065.48 1.346c.03.09.062.185.096.262.03.068.078.095.162.095h.026v.101h-.011zm-.74-.023c.13-.004.256-.009.38-.009.122 0 .235.005.349.01v-.054h-.004c-.09 0-.15-.034-.183-.11-.034-.078-.066-.174-.096-.264l-.48-1.346-.023-.062c-.002-.002-.001-.002-.004-.002h-.004c-.006 0-.009.001-.016.003a.99.99 0 01-.232.103c-.016.097-.063.226-.097.321l-.417 1.182a.248.248 0 01-.237.175h-.004v.053c.09-.004.18-.009.27-.009.1 0 .204.005.303.01v-.054h-.016c-.085-.001-.204-.01-.207-.102 0-.051.032-.117.057-.204l.012.003-.012-.003.086-.275h.608l.105.306c.029.082.053.15.053.189-.004.079-.114.084-.173.086h-.017v.053zm-.532-.756l.25-.751h.012v.011h-.002.002v-.011h.008l.248.75h-.52zm.03-.023h.457l-.227-.69-.23.69z" fill="#FFF" fill-rule="nonzero"/><path d="M17.457 20.809c-.196 0-.203.046-.242.234h-.079c.01-.072.024-.144.032-.22a1.55 1.55 0 00.015-.217h.063c.02.077.086.074.156.074h1.346c.07 0 .135-.002.14-.08l.063.01-.029.209c-.005.07-.005.14-.005.208l-.078.029c-.005-.095-.018-.247-.193-.247h-.428v1.369c0 .198.092.221.217.221h.05v.078c-.102 0-.285-.01-.426-.01-.156 0-.339.01-.44.01v-.078h.049c.144 0 .217-.013.217-.216V20.81h-.428z" fill="#FFF"/><path d="M18.484 22.487c-.102 0-.285-.01-.425-.01-.156 0-.338.01-.44.01h-.012v-.1h.061c.144-.002.201-.004.205-.204V20.82h-.416v-.023h.439v1.386c0 .207-.085.227-.228.228h-.038v.055c.103-.002.278-.01.43-.01.135 0 .31.008.413.01v-.055h-.039c-.125-.001-.227-.03-.227-.233v-1.38h.439c.175 0 .198.147.203.242l.057-.02c0-.067 0-.135.005-.202.007-.066.017-.132.027-.198l-.04-.007c-.012.075-.085.08-.15.078h-1.359c-.062 0-.128-.003-.152-.075h-.043c0 .072-.005.14-.015.21-.007.07-.02.138-.03.206h.056c.034-.18.057-.238.252-.235v.022c-.193.004-.189.036-.232.226l-.002.01h-.1l.001-.014c.011-.072.024-.144.032-.219.01-.071.016-.143.016-.216v-.012h.082l.002.008c.019.065.066.066.133.067h1.359c.072-.001.124-.002.129-.07v-.012l.013.002.074.012-.002.011-.029.208c-.005.068-.005.138-.005.207v.008l-.007.003-.093.033v-.015c-.007-.096-.017-.236-.182-.236h-.416v1.358c.002.194.08.207.204.21h.061v.1h-.01zm.563-.088h.036c.095 0 .193-.013.193-.146v-1.349c0-.134-.098-.147-.193-.147h-.036v-.077c.102 0 .258.01.386.01.13 0 .287-.01.41-.01v.077h-.037c-.094 0-.193.013-.193.147v1.349c0 .133.099.146.193.146h.036v.078c-.125 0-.281-.01-.412-.01-.128 0-.281.01-.383.01v-.078z" fill="#FFF"/><path d="M20.022 22.487c-.154 0-.345-.01-.504-.01-.156 0-.344.01-.469.01h-.013v-.099h.058c.115-.002.221-.01.222-.136v-1.348c-.001-.126-.107-.134-.222-.136h-.058v-.1h.013c.125 0 .317.01.472.01.159 0 .35-.01.501-.01h.014v.101h-.058c-.117.002-.222.01-.223.136v1.348c.001.126.106.134.223.136h.058v.099h-.014zm-.014-.022v-.054h-.03c-.115 0-.25-.016-.25-.159v-1.348c0-.142.135-.158.25-.158h.03v-.055c-.147 0-.332.01-.487.01-.151 0-.334-.01-.458-.01v.055h.031c.113 0 .25.016.25.158v1.348c0 .143-.137.159-.25.159h-.03v.054c.122-.001.303-.01.454-.01.155 0 .34.01.49.01z" fill="#FFF" fill-rule="nonzero"/><path d="M20.882 20.641c.556 0 .999.34.999.889 0 .591-.43.985-.985.985-.553 0-.976-.37-.976-.924 0-.535.42-.95.962-.95m.04 1.76c.506 0 .594-.44.594-.815 0-.376-.206-.831-.639-.831-.456 0-.592.401-.592.746 0 .46.214.9.636.9" fill="#FFF" fill-rule="nonzero"/><g transform="translate(19.864 20.612)"><mask id="d" fill="#fff"><use xlink:href="#c"/></mask><path d="M.044.979a.955.955 0 01.974-.961V.04a.932.932 0 00-.952.94c.001.547.417.912.965.912.55 0 .974-.388.975-.974 0-.541-.437-.876-.988-.877V.018c.56 0 1.009.344 1.01.899-.001.598-.436.996-.997.997C.473 1.913.045 1.538.044.979M.41.889C.41.542.547.13 1.013.13c.442 0 .649.465.65.843-.001.375-.09.826-.606.826v-.022c.496 0 .582-.429.583-.804 0-.373-.204-.82-.627-.82-.448 0-.58.392-.581.735 0 .458.212.888.625.89V1.8C.624 1.8.41 1.352.409.89" fill="#1F1410" fill-rule="nonzero" mask="url(#d)"/></g><path d="M23.638 21.97l.005-.006V21c0-.21-.149-.242-.227-.242h-.057v-.077c.123 0 .243.01.365.01.107 0 .214-.01.321-.01v.077h-.04c-.109 0-.232.02-.232.327v1.171c0 .09.003.18.016.26h-.099l-1.343-1.477v1.06c0 .224.045.301.245.301h.045v.078c-.112 0-.224-.01-.336-.01-.118 0-.238.01-.355.01V22.4h.036c.18 0 .235-.12.235-.326v-1.085a.232.232 0 00-.237-.23h-.034v-.078c.099 0 .2.01.3.01.078 0 .153-.01.232-.01l1.16 1.29z" fill="#FFF"/><path d="M23.79 22.526l-.109-.004-1.323-1.455v1.031c.004.224.038.287.234.29h.056v.098h-.011c-.113 0-.225-.01-.336-.01-.117 0-.237.01-.356.01h-.01v-.099h.047c.172 0 .222-.11.224-.315V20.99a.221.221 0 00-.226-.22h-.045v-.102h.01c.1 0 .202.01.3.01.078 0 .153-.01.241-.006l1.146 1.273V21c0-.204-.14-.23-.216-.23h-.069v-.102h.012c.123 0 .243.01.365.01.106 0 .213-.01.321-.01h.011v.1h-.051c-.107.003-.218.013-.22.316v1.171c0 .09.002.18.015.258l.002.013h-.013zm-.1-.022h.086a1.782 1.782 0 01-.014-.249v-1.171c0-.31.132-.337.244-.338h.028v-.055c-.103 0-.206.01-.31.01-.12 0-.236-.01-.354-.01v.055h.046c.08 0 .238.036.238.253l-.003.973-.005.005-.008.009-1.16-1.295c-.077 0-.154.01-.232.01-.097 0-.194-.01-.29-.01v.055h.024c.122 0 .248.092.248.243v1.083c0 .206-.058.338-.246.339h-.025v.054c.113 0 .229-.01.344-.01.108 0 .216.01.325.01v-.054h-.034c-.205 0-.256-.089-.256-.313v-1.09l1.354 1.496zm.774-.396c-.026.088-.057.155-.057.201 0 .077.11.09.195.09h.03v.078a4.814 4.814 0 00-.597 0v-.078h.014c.102 0 .189-.06.227-.167l.418-1.181c.034-.096.08-.224.096-.32.083-.028.188-.08.238-.11.007-.003.012-.006.02-.006s.013 0 .018.008l.024.065.48 1.346c.03.09.062.185.096.262.031.073.086.103.172.103h.016v.078a7.61 7.61 0 00-.751 0v-.078h.029c.06 0 .162-.01.162-.074a.81.81 0 00-.053-.186l-.101-.298h-.592l-.084.267zm.381-1.14h-.005l-.243.729h.488l-.24-.729z" fill="#FFF" fill-rule="nonzero"/><path d="M25.853 22.487c-.117-.004-.234-.01-.359-.01-.127 0-.258.006-.39.01l-.012.001v-.1h.039c.061 0 .15-.014.151-.063 0-.03-.023-.1-.052-.182l-.1-.291h-.575l-.08.26c-.026.088-.057.155-.057.197 0 .063.098.079.184.079h.04v.1h-.012a6.584 6.584 0 00-.315-.01c-.093 0-.187.005-.28.01h-.012v-.1h.026a.226.226 0 00.217-.16l.417-1.181c.033-.096.08-.224.103-.326a1.54 1.54 0 00.238-.11.053.053 0 01.024-.006.03.03 0 01.029.015c.008.02.015.043.024.064l.48 1.346c.03.09.062.185.096.262.03.068.078.095.161.096h.027v.1h-.012zm-.739-.022c.129-.005.256-.01.38-.01.121 0 .235.005.348.01v-.054h-.004c-.088 0-.15-.034-.182-.11-.035-.078-.066-.174-.097-.264l-.48-1.346-.022-.061c-.002-.003-.002-.003-.004-.003h-.005l-.015.003a.98.98 0 01-.232.103c-.016.097-.063.226-.097.321l-.418 1.182a.247.247 0 01-.237.175h-.004v.053c.09-.004.18-.009.27-.009.102 0 .204.005.305.01v-.054h-.018c-.085-.001-.204-.01-.207-.102 0-.051.033-.116.058-.204l.01.003-.01-.003.086-.275h.608l.105.306a.785.785 0 01.052.189c-.004.079-.113.084-.173.086h-.017v.054zm-.533-.758l.25-.75h.014v.011h-.003.003v-.011h.008l.247.75h-.519zm.032-.022h.456l-.227-.689-.23.69z" fill="#FFF" fill-rule="nonzero"/><path d="M26.511 22.224c0 .103.073.134.156.145.107.007.224.007.345-.006a.372.372 0 00.25-.139.58.58 0 00.08-.185h.076c-.029.147-.065.291-.097.438-.229 0-.459-.01-.688-.01-.23 0-.459.01-.688.01v-.078h.036c.094 0 .196-.013.196-.172v-1.323c0-.134-.102-.147-.196-.147h-.036v-.077c.138 0 .274.01.412.01.133 0 .263-.01.396-.01v.077h-.065c-.1 0-.177.003-.177.14v1.327z" fill="#FFF"/><path d="M27.321 22.487c-.23 0-.459-.01-.688-.01-.23 0-.459.01-.689.01h-.01v-.1h.047c.094-.001.184-.008.185-.16v-1.323c-.001-.126-.09-.134-.185-.136h-.047v-.1h.01c.14 0 .275.01.413.01.132 0 .262-.01.396-.01h.01v.101h-.075c-.101.003-.164-.001-.166.128v1.328c0 .096.064.122.146.133a2.033 2.033 0 00.342-.005.364.364 0 00.242-.134.572.572 0 00.08-.182l.001-.008h.099l-.003.013c-.03.147-.065.291-.097.438l-.002.008h-.009zm-.009-.022c.03-.14.064-.276.092-.415h-.053a.584.584 0 01-.08.181.388.388 0 01-.259.143 2.052 2.052 0 01-.346.005c-.085-.01-.167-.045-.167-.155v-1.328c0-.143.092-.15.189-.15h.054v-.055c-.129 0-.256.01-.385.01-.135 0-.267-.01-.401-.01v.055h.025c.093 0 .207.016.207.158v1.323c0 .166-.113.184-.207.184h-.025v.054c.225 0 .45-.01.677-.01.227 0 .453.01.679.01z" fill="#FFF" fill-rule="nonzero"/><path d="M27.47 20.607a.35.35 0 01.358.357.35.35 0 01-.358.354.35.35 0 01-.359-.354c0-.2.154-.357.359-.357zm0 .645c.16 0 .283-.136.283-.288a.287.287 0 00-.283-.29.289.289 0 00-.284.29c0 .152.123.288.284.288zm-.178-.1v-.018c.044-.006.052-.005.052-.032v-.264c0-.037-.004-.05-.05-.047v-.018h.182c.064 0 .121.03.121.094 0 .053-.035.092-.084.107l.059.082a.369.369 0 00.079.084v.011h-.07c-.034 0-.063-.07-.129-.164h-.04v.118c0 .024.009.023.053.029v.017h-.173zm.12-.188h.043c.046 0 .067-.035.067-.091 0-.057-.033-.077-.07-.077h-.04v.168z" fill="#FEFEFE" fill-rule="nonzero"/></g></svg>