<svg width="32" height="32" xmlns="http://www.w3.org/2000/svg"><g fill="none" fill-rule="evenodd" opacity=".8"><circle fill="#879395" cx="16" cy="16" r="16"/><g fill-rule="nonzero"><path fill="#D8DCDE" d="M13.012 11.252h5.179v9.026h-5.179z"/><path d="M13.34 15.765c-.002-1.761.832-3.426 2.26-4.513-2.426-1.85-5.91-1.58-8.004.618a5.613 5.613 0 000 7.788c2.094 2.2 5.578 2.469 8.005.62-1.428-1.088-2.262-2.752-2.26-4.513z" fill="#FFF"/><path d="M25.177 15.765c0 2.198-1.294 4.202-3.332 5.163a6.07 6.07 0 01-6.244-.65c1.428-1.089 2.261-2.752 2.261-4.514 0-1.76-.833-3.424-2.261-4.512a6.07 6.07 0 016.244-.65c2.038.96 3.332 2.964 3.332 5.162v.001zM24.757 19.703v-.502h.173v-.104h-.437v.104h.187v.502h.077zm.847 0v-.606h-.132l-.154.433-.154-.433h-.117v.606h.095v-.454l.143.394h.1l.142-.394v.459l.077-.005z" fill="#C6C9CA"/></g></g></svg>