<svg width="32" height="32" xmlns="http://www.w3.org/2000/svg" xmlns:xlink="http://www.w3.org/1999/xlink"><defs><path id="a" d="M0 .056h7.965v6.22H0z"/></defs><g fill="none" fill-rule="evenodd" opacity=".8"><circle fill="#879395" cx="16" cy="16" r="16"/><g transform="translate(6 12.587)"><mask id="b" fill="#fff"><use xlink:href="#a"/></mask><path d="M4.039.056c1.903 0 3.5 1.306 3.926 3.062l-1.628.706V3.82l-1.665.725L.677 6.276A3.958 3.958 0 010 4.058C0 1.848 1.808.056 4.039.056zm1.733 2.489a2.314 2.314 0 00-1.733-.776 2.3 2.3 0 00-2.301 2.498l4.034-1.722z" fill="#FFF" fill-rule="nonzero" mask="url(#b)"/></g><path d="M13.03 19.613c-1.466 1.457-3.407 1.6-5.113.517l.964-1.533c.97.607 1.945.508 2.925-.296l1.225 1.312zM14.64 18.603L14.628 11h1.482v7.398c0 .07.009.133.105.17l1.289.487-.58 1.468-1.511-.621c-.573-.236-.774-.577-.775-1.299" fill="#FFF"/><path d="M20.062 18.643c-.524-.43-.86-1.1-.86-1.856 0-.67.266-1.275.693-1.703l-.902-1.545a4.223 4.223 0 00-1.488 3.248c0 1.42.676 2.672 1.705 3.418l.852-1.562z" fill="#D8DCDE"/><path d="M20.803 14.437c.242-.086.503-.133.774-.133.98 0 1.814.606 2.14 1.457l1.778-.146c-.43-1.737-2.02-3.028-3.918-3.028-.536 0-1.047.104-1.515.291l.741 1.559z" fill="#FFF"/><path d="M24.02 16.714c-.059 1.275-1.088 2.29-2.349 2.29-.198 0-.39-.026-.573-.072l-.717 1.698c.406.136.84.21 1.29.21 2.233 0 4.054-1.806 4.143-4.069l-1.793-.057z" fill="#D8DCDE"/></g></svg>