<svg width="32" height="32" xmlns="http://www.w3.org/2000/svg"><g fill="none" fill-rule="evenodd" opacity=".8"><circle fill="#879395" cx="16" cy="16" r="16"/><path d="M22.46 17.619c-.38.388-1.445.499-1.336-.43.09-.77.894-.935 1.765-.823-.065.421-.14.957-.429 1.253zm-1.2-3.008c-.036.213-.091.405-.136.609.434-.114 1.788-.463 1.919.143.043.202-.032.416-.086.573-1.224-.121-2.222.091-2.485 1.003-.175.61.02 1.21.395 1.378.72.323 1.598-.047 1.902-.555a2.44 2.44 0 00-.052.573h.634c.007-.634.095-1.148.189-1.719.08-.486.23-.967.205-1.396-.054-.983-1.612-.635-2.484-.609zm6.358 3.312c-.496.011-.743-.31-.754-.841-.02-.931.371-1.966 1.165-2.059.37-.043.638.047.909.143-.25 1.046-.16 2.731-1.32 2.757zM29.263 13a17.826 17.826 0 01-.257 1.665c-1.807-.598-2.916.792-2.896 2.506.004.332.059.66.257.895.342.405 1.322.502 1.817.162.095-.066.193-.186.257-.269.047-.062.123-.226.137-.179-.026.182-.065.35-.069.555h.668c.13-1.93.528-3.579.823-5.335h-.737zm-18.866 4.637c-.395.436-1.364.43-1.44-.305-.033-.319.08-.654.137-.984.057-.335.098-.655.154-.95.389-.494 1.53-.554 1.645.27.101.715-.17 1.608-.496 1.969zm.582-3.026c-.623-.244-1.384.048-1.713.326.001.012-.008.013-.018.014l.018-.014v-.003c.005-.12.045-.203.051-.323h-.634A129.159 129.159 0 017.775 20h.737c.106-.688.177-1.414.325-2.059.168.678 1.267.549 1.73.287.958-.54 1.695-3.113.412-3.617zm3.496 1.29h-1.73c.054-.416.412-.873.976-.896.53-.021.91.204.754.895zm-.703-1.361c-.532.042-.982.203-1.302.555-.392.431-.71 1.386-.617 2.255.133 1.24 1.611 1.196 2.793.896.02-.218.07-.404.103-.61-.487.191-1.333.457-1.833.126-.379-.25-.38-.882-.258-1.432.795-.026 1.62-.021 2.417 0 .05-.39.195-.815.068-1.2-.167-.508-.763-.64-1.37-.59zm-6.477.071c-.02.003-.019.029-.017.054a54.967 54.967 0 01-.617 3.67h.737c.177-1.277.38-2.527.634-3.724h-.737zm19.226.018c-.65-.34-1.193.23-1.405.573.06-.176.064-.41.12-.59h-.65a57.532 57.532 0 01-.635 3.723h.754c.005-.493.098-.859.171-1.343.158-1.033.39-2.167 1.543-1.826.038-.175.054-.373.102-.537zm-8.276 2.829c-.068-.184-.086-.486-.069-.716.038-.518.219-1.147.497-1.433.384-.393 1.143-.328 1.748-.107.019-.213.06-.403.086-.609-.993-.169-1.934-.064-2.434.484-.488.536-.809 1.767-.582 2.542.265.907 1.453.956 2.416.609.043-.183.065-.386.103-.573-.526.285-1.532.434-1.765-.197zm-.411-2.847c-.654-.275-1.167.19-1.406.627.054-.194.077-.422.12-.627h-.65c-.16 1.29-.395 2.501-.618 3.724h.737c.103-.726.148-1.704.377-2.399.183-.555.662-1.028 1.354-.77.01-.204.066-.36.086-.555zM5.958 13.107a96.963 96.963 0 01-.342 2.113c-.764.008-1.543.04-2.28-.018.14-.684.24-1.41.378-2.095H2.89c-.294 1.746-.562 3.519-.891 5.228h.84c.131-.877.255-1.763.428-2.596.716-.018 1.574-.05 2.262.018-.142.866-.313 1.702-.446 2.578h.84c.27-1.77.554-3.527.891-5.228h-.857zm2.09.788c.148-.106.337-.587.12-.788-.068-.063-.182-.081-.342-.053-.148.026-.233.078-.291.16-.093.133-.179.533-.034.681.14.145.454.067.548 0z" fill="#FEFEFE" fill-rule="nonzero"/></g></svg>