<svg width="32" height="32" xmlns="http://www.w3.org/2000/svg" xmlns:xlink="http://www.w3.org/1999/xlink"><defs><circle id="a" cx="16" cy="16" r="16"/><rect id="c" x="0" y="0" width="32" height="19" rx="3.2"/></defs><g fill="none" fill-rule="evenodd" opacity=".8"><mask id="b" fill="#fff"><use xlink:href="#a"/></mask><use fill="#879395" xlink:href="#a"/><path d="M32 16c0-8.837-7.163-16-16-16S0 7.163 0 16s32 8.837 32 0z" fill="#C6C9CA" mask="url(#b)"/><g mask="url(#b)"><g transform="translate(0 7)"><mask id="d" fill="#fff"><use xlink:href="#c"/></mask><use fill="#C6C9CA" xlink:href="#c"/><path d="M-.57 24.114h33.047V11.79c-5.96-2.01-16.555-5.022-33.047-.755v13.08z" fill="#879395" mask="url(#d)"/><path d="M32.477 11.943c-5.96-1.896-16.555-4.736-33.047-.712V8.207c16.4-4.3 29.093-.85 33.083.593l-.036 3.143z" fill="#D8DCDE" mask="url(#d)"/><path d="M10.068 6.308c.812-2.11 2.67-3.932 5.899-3.91 3.229.023 5.383 1.752 5.965 4.022-4.162-.408-6.935-.478-11.864-.112" fill="#FFF" mask="url(#d)"/><path d="M24.272 15.27a8.751 8.751 0 01-1.148.148c-.29.023-.495.049-.614.077a.647.647 0 00-.277.127c-.066.055-.099.117-.099.184 0 .104.072.19.213.26.142.068.35.103.623.103.271 0 .512-.033.723-.098.21-.066.367-.156.466-.27.076-.087.113-.216.113-.387v-.143zm.059.869a3.489 3.489 0 01-.753.26c-.241.05-.5.074-.776.074-.456 0-.805-.06-1.05-.184-.245-.123-.368-.28-.368-.472 0-.112.046-.215.14-.308a.99.99 0 01.362-.223c.15-.056.319-.099.507-.127.137-.02.345-.04.624-.059.568-.037.987-.082 1.255-.134l.004-.1c0-.16-.067-.271-.2-.336-.179-.088-.447-.131-.8-.131-.331 0-.575.031-.734.095a.646.646 0 00-.35.341l-.686-.052a.837.837 0 01.308-.394c.143-.1.35-.178.621-.231.271-.054.585-.081.942-.081.355 0 .642.023.863.069.221.046.384.104.49.174.103.07.175.157.218.264.023.067.035.186.035.359v.518c0 .362.014.59.045.685.03.096.09.188.177.276h-.735a.573.573 0 01-.14-.283zm-5.992.283v-2.293h.632v.347c.161-.162.31-.27.448-.321.136-.052.286-.078.45-.078.238 0 .478.042.723.125l-.242.36a1.626 1.626 0 00-.515-.084c-.155 0-.292.026-.415.077a.518.518 0 00-.261.213.898.898 0 00-.118.453v1.2h-.702zm-2.336 0v-.337c-.324.26-.762.388-1.317.388-.244 0-.474-.025-.686-.077-.212-.052-.37-.117-.472-.195a.626.626 0 01-.217-.289 1.143 1.143 0 01-.043-.363v-1.42h.703V15.4c0 .204.014.34.043.41.045.103.138.183.28.242.145.058.322.087.533.087.21 0 .408-.03.594-.09.185-.06.316-.14.392-.243.077-.104.116-.253.116-.449V14.13h.703v2.293h-.629zm-7.556-1.3h1.943l-.599-.877a6.524 6.524 0 01-.405-.656 2.819 2.819 0 01-.31.605l-.629.928zm-1.652 1.3l2.2-3.166h.816l2.345 3.166h-.864l-.669-.96H8.228l-.628.96h-.805z" fill="#FFF" fill-rule="nonzero" mask="url(#d)"/><path d="M24.272 15.27a8.751 8.751 0 01-1.148.148c-.29.023-.495.049-.614.077a.647.647 0 00-.277.127c-.066.055-.099.117-.099.184 0 .104.072.19.213.26.142.068.35.103.623.103.271 0 .512-.033.723-.098.21-.066.367-.156.466-.27.076-.087.113-.216.113-.387v-.143zm.059.869a3.489 3.489 0 01-.753.26c-.241.05-.5.074-.776.074-.456 0-.805-.06-1.05-.184-.245-.123-.368-.28-.368-.472 0-.112.046-.215.14-.308a.99.99 0 01.362-.223c.15-.056.319-.099.507-.127.137-.02.345-.04.624-.059.568-.037.987-.082 1.255-.134l.004-.1c0-.16-.067-.271-.2-.336-.179-.088-.447-.131-.8-.131-.331 0-.575.031-.734.095a.646.646 0 00-.35.341l-.686-.052a.837.837 0 01.308-.394c.143-.1.35-.178.621-.231.271-.054.585-.081.942-.081.355 0 .642.023.863.069.221.046.384.104.49.174.103.07.175.157.218.264.023.067.035.186.035.359v.518c0 .362.014.59.045.685.03.096.09.188.177.276h-.735a.573.573 0 01-.14-.283zm-5.992.283v-2.293h.632v.347c.161-.162.31-.27.448-.321.136-.052.286-.078.45-.078.238 0 .478.042.723.125l-.242.36a1.626 1.626 0 00-.515-.084c-.155 0-.292.026-.415.077a.518.518 0 00-.261.213.898.898 0 00-.118.453v1.2h-.702zm-2.336 0v-.337c-.324.26-.762.388-1.317.388-.244 0-.474-.025-.686-.077-.212-.052-.37-.117-.472-.195a.626.626 0 01-.217-.289 1.143 1.143 0 01-.043-.363v-1.42h.703V15.4c0 .204.014.34.043.41.045.103.138.183.28.242.145.058.322.087.533.087.21 0 .408-.03.594-.09.185-.06.316-.14.392-.243.077-.104.116-.253.116-.449V14.13h.703v2.293h-.629zm-7.556-1.3h1.943l-.599-.877a6.524 6.524 0 01-.405-.656 2.819 2.819 0 01-.31.605l-.629.928zm-1.652 1.3l2.2-3.166h.816l2.345 3.166h-.864l-.669-.96H8.228l-.628.96h-.805z" stroke="#FFF" stroke-width=".5" mask="url(#d)"/></g></g></g></svg>