<svg width="32" height="32" xmlns="http://www.w3.org/2000/svg" xmlns:xlink="http://www.w3.org/1999/xlink"><defs><circle id="a" cx="16" cy="16" r="16"/></defs><g fill="none" fill-rule="evenodd" opacity=".8"><mask id="b" fill="#fff"><use xlink:href="#a"/></mask><use fill="#879395" xlink:href="#a"/><g mask="url(#b)"><path fill="#FFF" d="M0 23.372h31.387V8.178H0z"/><path d="M31.393 0H0v13.217l1.072-2.436h2.294l.316.602v-.602h2.68l.604 1.3.59-1.3h8.546c.399 0 .742.069 1.003.288v-.288h2.35v.288c.384-.22.892-.288 1.47-.288h3.393l.316.602v-.602h2.5l.371.602v-.602h2.446v5.132h-2.473l-.481-.78v.78h-3.078l-.343-.835h-.756l-.343.835h-1.608c-.632 0-1.099-.151-1.415-.315v.315h-3.82v-1.178c0-.163-.027-.19-.136-.19h-.124v1.368H7.996v-.657l-.261.657H6.182l-.26-.63v.63H2.94l-.316-.835H1.87l-.344.835H0V31.4h31.393V22c-.33.151-.81.233-1.277.233H27.82v-.314c-.261.205-.742.314-1.182.314h-7.212v-1.176c0-.164-.028-.164-.165-.164h-.123v1.34H16.76v-1.395c-.398.191-.838.191-1.236.191h-.261v1.204h-2.899l-.687-.793-.756.793H6.265V17.09h4.74l.673.794.742-.794h3.187c.372 0 .976.055 1.237.314v-.314h2.844c.288 0 .838.055 1.209.314v-.314h4.286v.314c.248-.205.687-.314 1.086-.314h2.39v.314c.262-.177.632-.314 1.113-.314h1.621V0zM1.621 13.586l.619-1.45.604 1.45H1.62zm14.536-.588c-.137.082-.261.082-.44.082h-1.085v-.807h1.085c.152 0 .33 0 .44.055.11.068.165.177.165.341 0 .151-.055.288-.165.33zm7.638.588l-.604-1.45-.604 1.45h1.208zm-14.274-2.08H8.079l-1.086 2.49-1.154-2.49H4.424v3.462l-1.511-3.461H1.608l-1.58 3.667h.947l.33-.808H3.16l.33.808h1.8V12.3l1.291 2.874h.755L8.628 12.3v2.874h.893v-3.667zm3.613 2.915h-2.06v-.739h2.033v-.752h-2.034v-.657h2.061v-.766H10.18v3.667h2.954v-.753zm3.71-2.75c-.289-.164-.604-.164-1.058-.164h-2.02v3.667h.866v-1.328h.948c.316 0 .522.028.66.15.15.192.123.507.123.712v.466h.906v-.726c0-.314-.027-.479-.164-.656a1.076 1.076 0 00-.426-.315c.247-.11.632-.397.632-.972 0-.424-.179-.656-.467-.834zm.976 3.503h.892v-3.667h-.892v3.667zm11.348 0h-1.264l-1.663-2.75v2.75h-1.786l-.344-.808h-1.84l-.344.808h-1.03c-.426 0-.976-.096-1.291-.41-.29-.316-.454-.74-.454-1.397.014-.547.083-1.04.481-1.436.261-.287.741-.424 1.346-.424h.838v.793h-.838c-.316 0-.508.055-.687.205-.165.164-.233.452-.233.835 0 .397.068.684.233.876.124.123.371.178.605.178h.398l1.265-2.887h1.304l1.484 3.46v-3.46h1.36l1.553 2.544v-2.544h.907v3.667zm-19.07 5.568H7.914v-.74h1.95v-.738h-1.95v-.67h2.212l.975 1.067-1.003 1.081zm2.143-1.08l1.36-1.437v2.955l-1.36-1.519zm3.394-.138h-1.168v-.93h1.168c.316 0 .522.123.522.438 0 .314-.206.492-.522.492zm4.286-.178c-.137.055-.261.055-.425.055l-1.072.028v-.835h1.072c.164 0 .316 0 .425.068.11.055.179.165.179.315a.44.44 0 01-.179.37zm-4.286-1.518h-2.816l-1.14 1.204-1.073-1.204H7.048v3.667h3.503l1.127-1.205 1.086 1.205h1.703v-1.232h1.113c.756 0 1.525-.205 1.525-1.231 0-1-.783-1.204-1.47-1.204zm5 .177c-.288-.15-.631-.177-1.085-.177h-2.02v3.667h.894v-1.341h.948c.316 0 .494.027.632.164.15.178.15.492.15.739v.438h.88v-.712c0-.329-.027-.493-.137-.67a.913.913 0 00-.454-.315c.247-.082.632-.397.632-.971 0-.425-.15-.657-.44-.822zm3.889 2.737h-2.075v-.74h2.034v-.738h-2.034v-.67h2.075v-.766h-2.94v3.667h2.94v-.753zm3.38-1.19c-.22-.178-.536-.288-1.03-.288h-.482c-.123 0-.233-.027-.343-.054a.273.273 0 01-.179-.26c0-.123.028-.206.138-.288.068-.054.178-.054.343-.054h1.621v-.78h-1.758c-.948 0-1.264.574-1.264 1.094 0 1.163 1.03 1.109 1.841 1.136.164 0 .26.027.316.082.054.041.11.15.11.26a.343.343 0 01-.11.233c-.083.054-.179.082-.344.082H25.06v.78h1.703c.893 0 1.402-.37 1.402-1.15 0-.369-.11-.602-.261-.793zm3.71.794c0 .779-.51 1.149-1.402 1.149h-1.704v-.78h1.704c.164 0 .288-.028.343-.082a.34.34 0 00.11-.233c0-.11-.055-.219-.11-.26-.055-.055-.151-.082-.316-.082-.81-.027-1.84.027-1.84-1.136 0-.52.343-1.094 1.263-1.094h1.759v.78H29.8c-.165 0-.275 0-.344.054-.082.082-.137.165-.137.287 0 .137.082.22.178.26.11.028.22.055.344.055h.48c.495 0 .811.11 1.031.288.151.191.261.424.261.794z" fill="#879395" fill-rule="nonzero"/></g></g></svg>