<svg width="32" height="32" viewBox="0 0 32 32" fill="none" xmlns="http://www.w3.org/2000/svg">
<circle cx="16" cy="16" r="16" fill="#9FA9AA"/>
<path d="M15.7318 17.4392C15.9523 17.2284 16.2996 17.2284 16.5201 17.4392L19.5204 20.4414C20.0707 20.9929 20.8185 21.3016 21.5975 21.2988L21.9651 21.3013L18.1555 25.1114C16.9683 26.2962 15.046 26.2962 13.8587 25.1114L10.0568 21.3095H10.6442C11.4236 21.3115 12.1714 21.002 12.7213 20.4497L15.7318 17.4392ZM9.20519 11.5392C9.25451 11.5586 9.30684 11.5691 9.3598 11.5703H10.6448C11.1897 11.5718 11.7118 11.7884 12.0978 12.1729L15.1089 15.1821C15.6714 15.7436 16.5824 15.7436 17.1449 15.1821L20.1446 12.1843C20.5306 11.8 21.0528 11.5837 21.5975 11.5823H22.6443C22.7004 11.5818 22.7559 11.5706 22.8078 11.5494L25.1099 13.8514V13.8508C25.6798 14.4205 26 15.1933 26 15.9992C26 16.8051 25.6798 17.5779 25.1099 18.1476L22.8078 20.4497C22.7559 20.4283 22.7004 20.4171 22.6443 20.4167H21.5975C21.0528 20.4153 20.5306 20.199 20.1446 19.8147L17.1449 16.8157C16.6012 16.272 15.6526 16.272 15.1083 16.8157L12.0978 19.8261C11.7118 20.2106 11.1896 20.4271 10.6448 20.4288H9.35473C9.30173 20.4296 9.24933 20.4401 9.20012 20.4598L6.88856 18.1482C5.70381 16.961 5.70381 15.0387 6.88856 13.8514L9.20519 11.5392ZM16.0008 6C16.8066 6 17.5795 6.3202 18.1492 6.89013L21.9587 10.6996H21.5975C20.8179 10.6972 20.0699 11.0071 19.5204 11.5601L16.5207 14.5599C16.3028 14.7771 15.9503 14.7771 15.7324 14.5599L12.722 11.5487C12.1721 10.9964 11.4242 10.6868 10.6448 10.6889H10.0568L13.8524 6.89013C14.4221 6.3202 15.1949 6 16.0008 6Z" fill="white"/>
</svg>
